<svg width="32" height="32" viewBox="0 0 32 32" fill="none" xmlns="http://www.w3.org/2000/svg">
<circle cx="16" cy="16" r="16" fill="black" fill-opacity="0.38"/>
<path fill-rule="evenodd" clip-rule="evenodd" d="M15.0955 22.1692C15.0992 22.2562 15.0898 22.3411 15.0715 22.4271C15.0393 22.5781 14.9771 22.7379 14.8891 22.8856C14.6389 23.3053 14.2139 23.5854 13.6667 23.5854C12.3776 23.5854 11.8716 22.9529 11.2382 21.3693C10.8091 20.2967 10.6067 20.0437 10.125 20.0437V18.627C11.4141 18.627 11.92 19.2595 12.5535 20.8431C12.9825 21.9157 13.1849 22.1687 13.6667 22.1687C13.6667 21.9632 13.6639 21.7811 13.6579 21.5346C13.644 20.9567 13.6424 20.8387 13.6677 20.6842C13.6777 20.347 13.7648 20.1077 13.9394 19.8702C12.3585 19.5261 11.2923 18.8154 10.6803 17.6626L10.4511 17.1235C10.2277 16.4817 10.125 15.7545 10.125 14.9146C10.125 13.9473 10.4199 13.0825 10.9708 12.3595C10.7989 11.6723 10.8225 10.8327 11.2019 9.88455L11.3259 9.57472L11.6437 9.47305C11.6863 9.45944 11.738 9.44714 11.7988 9.43761C12.4177 9.34046 13.2984 9.57223 14.4498 10.3097C15.1285 10.1524 15.8433 10.0729 16.5629 10.0729C17.2059 10.0729 17.8454 10.1378 18.4562 10.2656C19.5763 9.56411 20.4328 9.34409 21.0351 9.43773C21.0952 9.44707 21.1464 9.45913 21.1886 9.47251L21.5084 9.57394L21.6326 9.88565C21.9645 10.7192 22.0214 11.4873 21.9007 12.1595C22.5339 12.9193 22.875 13.8535 22.875 14.9146C22.875 15.8092 22.8109 16.4818 22.6267 17.1363L22.4322 17.6699C21.9232 18.8214 20.8006 19.5401 19.0695 19.8824C19.2494 20.1316 19.3333 20.3845 19.3333 20.752V21.4604C19.3333 21.8036 19.3333 21.8142 19.3326 22.1687C19.3342 22.1942 19.3363 22.2066 19.3386 22.2144C19.3382 22.2145 19.3365 22.6715 19.3333 23.5854C18.73 23.5854 18.2814 23.2911 18.0607 22.827C17.9463 22.5863 17.9122 22.3565 17.9167 22.1586V20.752C17.9167 20.6926 17.9146 20.6892 17.77 20.5446C17.3834 20.158 17.2083 19.8663 17.2083 19.3354V18.6946L17.8459 18.6306C19.7437 18.44 20.7759 17.9129 21.1181 17.143L21.278 16.7058C21.4053 16.2487 21.4583 15.6919 21.4583 14.9146C21.4583 14.0886 21.17 13.4063 20.6246 12.8612L20.3249 12.5615L20.4472 12.1557C20.5559 11.7952 20.5817 11.3686 20.4667 10.8821C20.4476 10.8869 20.4278 10.8922 20.4072 10.898C20.0279 11.0035 19.5544 11.2301 18.9837 11.6115L18.7235 11.7855L18.4196 11.7102C17.8319 11.5644 17.2004 11.4896 16.5629 11.4896C15.8539 11.4896 15.1531 11.5798 14.5057 11.7563L14.1897 11.8425L13.9194 11.6576C13.3292 11.2538 12.8389 11.0137 12.4458 10.9016C12.4177 10.8935 12.391 10.8864 12.3656 10.88C12.2284 11.4431 12.2827 11.9057 12.4216 12.2529L12.5881 12.6692L12.2832 12.9978C11.7973 13.5216 11.5417 14.1589 11.5417 14.9146C11.5417 15.6065 11.6227 16.1798 11.7711 16.6116L11.9564 17.0504C12.4198 17.9199 13.404 18.443 15.1588 18.6311L15.7917 18.6989V19.3354C15.7917 19.8663 15.6166 20.158 15.23 20.5446C15.0854 20.6892 15.0833 20.6926 15.0833 20.752L15.0711 20.883C15.063 20.9259 15.063 21.0368 15.0742 21.5005C15.0793 21.7138 15.0822 21.8826 15.0831 22.059C15.0915 22.0955 15.0928 22.1191 15.0955 22.1692Z" fill="white"/>
</svg>
