<svg width="32" height="32" viewBox="0 0 32 32" fill="none" xmlns="http://www.w3.org/2000/svg">
<circle cx="16" cy="16" r="16" fill="black" fill-opacity="0.38"/>
<path d="M25.4062 11.0635C24.7381 11.3538 24.0311 11.5451 23.3077 11.6313C24.068 11.1861 24.6397 10.4788 24.9157 9.64219C24.1969 10.0625 23.4118 10.3574 22.5941 10.5143C22.2498 10.1534 21.8356 9.8663 21.3769 9.67045C20.9181 9.4746 20.4244 9.37408 19.9256 9.37501C17.9061 9.37501 16.2718 10.9856 16.2718 12.9709C16.2703 13.2471 16.302 13.5224 16.366 13.791C14.9179 13.7231 13.4999 13.3537 12.2027 12.7064C10.9056 12.0591 9.75778 11.1482 8.83283 10.0318C8.50834 10.5789 8.33673 11.203 8.33594 11.8391C8.33594 13.0859 8.98646 14.1881 9.96875 14.8338C9.38677 14.82 8.81672 14.666 8.30699 14.3848V14.4293C8.30699 16.1734 9.56871 17.6244 11.2386 17.9547C10.9246 18.0384 10.601 18.0808 10.276 18.0809C10.0454 18.0813 9.81533 18.0589 9.58912 18.0141C10.0534 19.4428 11.4045 20.4818 13.005 20.5115C11.7045 21.5138 10.1078 22.0556 8.46582 22.0516C8.17437 22.0511 7.88319 22.0338 7.59375 21.9996C9.26411 23.0662 11.2058 23.6304 13.1876 23.625C19.9178 23.625 23.5946 18.144 23.5946 13.3902C23.5946 13.2344 23.5905 13.0785 23.5831 12.9264C24.2967 12.4187 24.9141 11.7879 25.4062 11.0635Z" fill="white"/>
</svg>
